<svg width="185" height="216" viewBox="0 0 185 216" fill="none" xmlns="http://www.w3.org/2000/svg">
<path d="M68.7167 153.327C45.7806 164.849 23.1181 176.229 0.451018 187.616C0.300633 187.451 0.15025 187.287 -0.000135004 187.123C0.792257 185.994 1.57448 184.857 2.38165 183.729C18.062 161.766 33.7164 139.775 49.4781 117.869C51.1667 115.517 51.3077 114.029 50.3536 111.948C43.0328 95.9744 35.8453 79.9079 28.6194 63.8634C28.185 62.8923 27.817 61.8698 27.2037 60.3421C38.3187 62.6565 48.8632 64.8645 59.4117 67.0557C66.0023 68.4285 72.6453 69.6617 79.147 71.2367C81.5796 71.8271 83.0109 71.3131 84.932 68.5758C100.229 46.8237 115.679 25.1889 131.083 3.51175C131.7 2.6423 132.303 1.77228 133.547 -1.66864e-05C133.38 1.87154 133.358 2.85523 133.193 3.84686C129.135 27.8238 125.135 51.7929 120.925 75.7808C120.282 79.4344 120.711 81.0189 124.087 81.7034C143.471 85.628 162.715 89.9147 182.006 94.0784C182.722 94.2378 183.415 94.4401 184.734 94.7781C183.196 95.6286 182.216 96.2142 181.212 96.7145C159.035 107.77 136.865 118.849 114.67 129.812C112.43 130.915 111.491 132.157 111.083 134.653C106.893 160.115 102.586 185.583 98.3125 211.045C98.0583 212.532 97.8042 214.019 96.9184 215.876C87.5728 195.15 78.2268 174.414 68.7167 153.327Z" fill="#A60000"/>
</svg>
