<svg width="642" height="513" viewBox="0 0 642 513" fill="none" xmlns="http://www.w3.org/2000/svg">
<path d="M157.821 512.316C195.338 455.803 232.854 399.291 271.123 341.647C227.283 366.125 184.626 389.957 141.97 413.78C141.746 413.54 141.522 413.3 141.289 413.059C174.911 379.731 208.543 346.396 242.165 313.067C242.033 312.764 241.912 312.455 241.78 312.152C161.295 332.959 80.8077 353.775 0.32231 374.583C0.217272 374.33 0.105194 374.066 0.000156292 373.813C2.39624 372.732 4.77283 371.61 7.18136 370.558C84.5968 336.679 162.044 302.868 239.422 268.902C276.153 252.778 313.014 236.911 349.348 219.933C381.89 204.723 412.276 185.555 442.201 165.736C515.366 117.28 588.517 68.8042 661.659 20.3263C672.142 13.3791 682.598 6.38198 693.558 4.48482e-05C690.885 2.35712 688.213 4.71417 685.525 7.05931C611.704 71.5253 538.252 136.42 463.914 200.295C414.77 242.526 369.664 288.684 325.401 335.808C270.403 394.361 215.1 452.624 159.919 511.007C159.414 511.54 158.888 512.042 158.378 512.555C158.213 512.479 158.021 512.399 157.821 512.316Z" fill="#4A5AC5"/>
</svg>
